<?xml version="1.0" encoding="UTF-8"?>
<svg width="57px" height="54px" viewBox="0 0 57 54" version="1.1" xmlns="http://www.w3.org/2000/svg" xmlns:xlink="http://www.w3.org/1999/xlink">
    <!-- Generator: Sketch 49.3 (51167) - http://www.bohemiancoding.com/sketch -->
    <title>添加图片-2</title>
    <desc>Created with Sketch.</desc>
    <defs>
        <filter x="-6.6%" y="-5.0%" width="113.2%" height="114.0%" filterUnits="objectBoundingBox" id="filter-1">
            <feOffset dx="0" dy="1" in="SourceAlpha" result="shadowOffsetOuter1"></feOffset>
            <feGaussianBlur stdDeviation="1" in="shadowOffsetOuter1" result="shadowBlurOuter1"></feGaussianBlur>
            <feColorMatrix values="0 0 0 0 0   0 0 0 0 0   0 0 0 0 0  0 0 0 0.2 0" type="matrix" in="shadowBlurOuter1" result="shadowMatrixOuter1"></feColorMatrix>
            <feMerge>
                <feMergeNode in="shadowMatrixOuter1"></feMergeNode>
                <feMergeNode in="SourceGraphic"></feMergeNode>
            </feMerge>
        </filter>
    </defs>
    <g id="Page-1" stroke="none" stroke-width="1" fill="none" fill-rule="evenodd">
        <g id="员工话名册-新增" transform="translate(-1081.000000, -4365.000000)" fill="#000000" fill-rule="nonzero">
            <g id="Group-15" transform="translate(779.000000, 3032.000000)">
                <g id="添加图片-2" filter="url(#filter-1)" transform="translate(304.000000, 1334.000000)">
                    <path d="M51.5026564,37.4674544 C51.5010001,37.2705121 51.4364023,35.4746645 49.8330521,33.3183123 L48.516251,31.5007677 L42.1227264,21.5651913 C41.9968436,21.3882769 38.9855928,17.2257828 34.8099256,17.7081247 C31.5800363,18.0819814 29.4830927,21.0978704 27.0946309,26.6740103 C25.3273017,30.8031244 23.6378211,33.0996729 22.0758797,33.5035717 C20.5023439,33.9091395 19.4654666,32.4304026 17.396681,30.7163362 L17.0852866,30.4593097 C14.8906182,28.6467721 13.0056879,28.2128313 10.9716857,29.0490019 C9.1695731,29.7900394 8.03662729,31.5191268 5.19101194,34.4532345 C4.74379649,34.9138794 4.73717107,35.6682689 5.1744484,36.1389278 C5.61172573,36.6095868 6.33058316,36.6162628 6.77779861,36.1556179 C12.2421089,30.5244008 12.8450216,29.9886508 15.6840115,32.3336004 L15.9920933,32.5889579 C18.4219639,34.6001068 19.9656854,36.5011015 22.6141946,35.8184792 C23.8084255,35.5113826 24.9099006,34.706923 25.9848741,33.3617064 C27.048253,32.0298418 28.0867867,30.1622271 29.1617601,27.6520462 C31.1642915,22.97383 32.708013,20.3534949 35.0467842,20.0781094 C37.9304957,19.7376327 40.284174,22.962147 40.3090193,22.9971961 L46.707513,32.9427866 L48.0325958,34.7703451 C48.0359085,34.7736832 48.0392212,34.7786902 48.0408776,34.7820282 C49.1373836,36.2540891 49.2268267,37.3940183 49.2334521,37.5075105 L49.256641,43.5142533 C49.256641,45.7774217 47.504219,47.6200013 45.3509594,47.6200013 L17.6881993,47.6200013 L5.72767048,47.5932973 C3.75164073,47.3579678 2.26754797,45.6138594 2.26754797,43.5142533 L2.26754797,9.74197209 C2.26754797,7.47880366 4.01997,5.63622405 6.17322958,5.63622405 L30.5464717,5.63622405 L30.5464717,3.25455638 L6.17322958,3.25455638 C2.76942309,3.25455638 0,6.16529808 0,9.7436411 L0,43.5109153 C0,45.1298485 0.571441965,46.6820215 1.60666292,47.8786968 C2.63525845,49.0670272 4.03653353,49.8097336 5.55375336,49.9682889 C5.59019314,49.9716269 5.62663291,49.9732959 5.66472905,49.9732959 L17.6865429,50 L45.3542721,50 C48.7580786,50 51.5275017,47.0892583 51.5275017,43.5059083 L51.5043128,37.4757995 L51.5026564,37.4674544 Z M9.74432777,17.3175779 C9.74432777,20.0313773 11.9721233,22.2394686 14.7100756,22.2394686 C17.448028,22.2394686 19.6758235,20.0313773 19.6758235,17.3175779 C19.6758235,14.6037786 17.448028,12.3956873 14.7100756,12.3956873 C11.9721233,12.3956873 9.74432777,14.6037786 9.74432777,17.3175779 Z M17.2691418,17.3175779 C17.2691418,18.7162027 16.1196325,19.8561319 14.7084193,19.8561319 C13.2972061,19.8561319 12.1476967,18.7178717 12.1476967,17.3175779 C12.1476967,15.9189532 13.2955497,14.779024 14.7084193,14.779024 C16.1212888,14.779024 17.2691418,15.9172842 17.2691418,17.3175779 Z M44.4333396,8.67881701 L44.4333396,0 L42.0846303,0 L42.0846303,8.67881701 L33.5179699,8.67881701 L33.5179699,11.0454636 L42.0846303,11.0454636 L42.0846303,19.7242807 L44.4333396,19.7242807 L44.4333396,11.0454636 L53,11.0454636 L53,8.67881701 L44.4333396,8.67881701 Z" id="Shape"></path>
                </g>
            </g>
        </g>
    </g>
</svg>