<?xml version="1.0" encoding="UTF-8"?>
<svg width="64px" height="62px" viewBox="0 0 64 62" version="1.1" xmlns="http://www.w3.org/2000/svg" xmlns:xlink="http://www.w3.org/1999/xlink">
    <!-- Generator: Sketch 49.2 (51160) - http://www.bohemiancoding.com/sketch -->
    <title>招聘计划</title>
    <desc>Created with Sketch.</desc>
    <defs></defs>
    <g id="Page-1" stroke="none" stroke-width="1" fill="none" fill-rule="evenodd">
        <g id="首页" transform="translate(-985.000000, -462.000000)" fill-rule="nonzero">
            <g id="招聘计划" transform="translate(985.666667, 462.000000)">
                <path d="M39.6144527,12.7453606 C39.2363172,12.742359 38.8747669,12.5903782 38.608894,12.3226652 C38.3098154,12.0449388 38.0670682,11.7126345 37.8938299,11.3437918 C37.685581,10.9756345 37.5348806,10.5780411 37.4469149,10.1646943 C37.3585009,9.83824882 37.3134259,9.50167795 37.3128404,9.16357369 L37.3128404,2 C37.6377533,2.00054404 37.9610557,2.0454569 38.2737077,2.13348276 C38.6708365,2.281565 39.0525194,2.46783866 39.413341,2.68966084 C39.9806045,3.04939121 40.5253576,3.44315125 41.0445808,3.86875838 C41.6702618,4.40268931 42.4747089,5.07010306 43.4355762,5.91549369 C44.3029689,6.66594461 45.1308638,7.46048303 45.9159545,8.29593591 C46.4070179,8.81962607 46.8694952,9.36917884 47.301391,9.942223 C47.5732568,10.2704117 47.7781969,10.6482553 47.9047263,11.0545792 C47.9815575,11.3221788 48.0191884,11.5994186 48.016455,11.8777228 L48.016455,12.7453606 L39.6144527,12.7453606 Z M59.9267402,41.5331382 C59.2126948,39.8734991 58.1890589,38.3636948 56.9100639,37.0837135 C55.6314079,35.8074958 54.1127892,34.7945122 52.4409137,34.102599 C50.7265362,33.4339736 48.8964394,33.108883 47.0555877,33.1459727 C45.1914525,33.130354 43.3437323,33.4937248 41.6255703,34.2138346 C39.9526644,34.9138957 38.4341947,35.9343388 37.1564202,37.2171962 C35.8783554,38.5026043 34.8482634,40.0107595 34.1173981,41.6666209 C33.3728238,43.3955754 32.9925508,45.2582607 33.0001105,47.1394132 C32.9969401,49.0201324 33.3770347,50.8819441 34.1173981,52.6122056 C34.8446557,54.2700527 35.8751743,55.7788324 37.1564202,57.0616302 C39.8074462,59.6194495 43.3640718,61.034222 47.0555877,60.9993711 C48.9113542,60.9852199 50.7443926,60.5914552 52.4409137,59.8425206 C55.8149734,58.4337857 58.5016795,55.7669226 59.9267402,52.4119815 C61.3577533,48.9025341 61.3577533,44.9758442 59.9267402,41.4663968 L59.9267402,41.5331382 Z M54.5190685,48.5187349 C54.32405,48.8566114 53.9712741,49.0740326 53.580547,49.0971601 L45.692497,49.0971601 C45.3072661,49.0748032 44.960892,48.8561207 44.7763212,48.5187349 C44.3738218,47.9069381 44.2672607,47.1479815 44.4858264,46.4497524 L44.4858264,40.0870751 C44.4873465,39.7670653 44.6458858,39.4680009 44.9103957,39.2861787 C45.287809,39.0213334 45.7460259,38.8954866 46.2064493,38.9302247 C46.6874824,38.8994006 47.1656314,39.0242632 47.56954,39.2861787 C47.8659725,39.4458891 48.0536187,39.7515912 48.0611466,40.0870751 L48.0611466,45.1594192 L53.580547,45.1594192 C53.9712741,45.1825467 54.32405,45.3999679 54.5190685,45.7378445 C54.7856386,46.156846 54.9252845,46.6434493 54.921292,47.1394132 C54.933059,47.6294507 54.7925888,48.1111571 54.5190685,48.5187349 Z" id="Shape" fill="#F45138"></path>
                <path d="M39.7052469,16.398521 C38.7573445,16.418708 37.8226778,16.172814 37.0066872,15.6885784 C36.253956,15.2475329 35.611041,14.640621 35.1265432,13.9137223 C34.6447423,13.239814 34.2784298,12.4899947 34.0426955,11.695152 C33.825834,10.8779572 33.7289639,10.0334069 33.755144,9.18816765 L33.755144,2 L11.6358025,2 C10.7704975,2.02329013 9.92542693,2.26764497 9.18055555,2.70994246 C8.34837729,3.19001857 7.60100082,3.80470591 6.96862136,4.5291701 C6.39846402,5.26113805 5.92970307,6.06713913 5.57510284,6.92522597 C5.21171819,7.71169768 5.01584781,8.56553451 5,9.43221034 L5,48.5899753 C5.00130096,49.5648827 5.26084124,50.5219376 5.75205758,51.3631882 C6.24290623,52.2411092 6.87011362,53.0349597 7.61008229,53.7148726 C8.32980312,54.3829071 9.14183394,54.9433202 10.0210905,55.3788003 C10.7600097,55.765168 11.576978,55.97761 12.4099794,56 L32.715535,56 C31.8411578,54.663972 31.1492964,53.2164043 30.6584362,51.6959737 C30.1541543,50.1186357 29.9003672,48.4715573 29.9063786,46.8151191 L29.9063786,45.9498768 C29.8836052,45.6767298 29.8836052,45.4021527 29.9063786,45.1290057 L15.7942387,45.1290057 C14.8465642,45.180885 13.9216343,44.8259372 13.2505144,44.1528349 C12.5737382,43.4818266 12.1928689,42.5670511 12.1928689,41.6125719 C12.1928689,40.6580928 12.5737382,39.7433172 13.2505144,39.072309 C13.9223527,38.3931196 14.8404323,38.0167788 15.7942387,38.0295809 L32.4943416,38.0295809 C33.9234457,35.7894059 35.8744285,33.9315539 38.1790123,32.6162695 C40.580562,31.2589651 43.2971414,30.5624752 46.0534979,30.5973706 L47.0267489,30.5973706 C47.3558348,30.594965 47.6835716,30.6397904 48,30.7304848 L48,16.398521 L39.7052469,16.398521 Z M39.8379629,29.7099425 C39.1773718,30.3923343 38.2644958,30.7698246 37.316358,30.7526705 L15.7942387,30.7526705 C14.8404323,30.7654727 13.9223527,30.3891318 13.2505144,29.7099425 C12.5737382,29.0389343 12.1928689,28.1241587 12.1928689,27.1696796 C12.1928689,26.2152004 12.5737382,25.3004248 13.2505144,24.6294166 C13.9125546,23.9331533 14.8351365,23.5469203 15.7942387,23.5645029 L37.316358,23.5645029 C38.2688643,23.5476771 39.1843285,23.9342922 39.8379629,24.6294166 C40.5091865,25.3055317 40.8766196,26.2268702 40.8554527,27.1807724 C40.8845247,28.1360933 40.5158864,29.0604539 39.8379629,29.7321282 L39.8379629,29.7099425 Z" id="Shape" fill="#FBC2BA"></path>
            </g>
        </g>
    </g>
</svg>