<?xml version="1.0" encoding="UTF-8"?>
<svg width="62px" height="62px" viewBox="0 0 62 62" version="1.1" xmlns="http://www.w3.org/2000/svg" xmlns:xlink="http://www.w3.org/1999/xlink">
    <!-- Generator: Sketch 49.2 (51160) - http://www.bohemiancoding.com/sketch -->
    <title>id-card</title>
    <desc>Created with Sketch.</desc>
    <defs></defs>
    <g id="Page-1" stroke="none" stroke-width="1" fill="none" fill-rule="evenodd">
        <g id="首页" transform="translate(-1276.000000, -463.000000)" fill-rule="nonzero">
            <g id="id-card" transform="translate(1276.000000, 463.000000)">
                <path d="M60,11.8945312 L60,52.9023438 C60,55.7229336 57.7231602,58 54.9023438,58 L7.09765625,58 C4.27683984,58 2,55.7229336 2,52.9023438 L2,11.8945312 C2,9.07371484 4.27683984,6.796875 7.09765625,6.796875 L54.9023438,6.796875 C57.7231602,6.796875 60,9.07371484 60,11.8945312 Z" id="Shape" fill="#FBC2BA"></path>
                <path d="M7.09765625,54.6015625 C6.16070703,54.6015625 5.3984375,53.839293 5.3984375,52.9023438 L5.3984375,11.8945312 C5.3984375,10.957582 6.16070703,10.1953125 7.09765625,10.1953125 L54.9023438,10.1953125 C55.839293,10.1953125 56.6015625,10.957582 56.6015625,11.8945312 L56.6015625,52.9023438 C56.6015625,53.839293 55.839293,54.6015625 54.9023438,54.6015625 L7.09765625,54.6015625 Z" id="Shape" fill="#FFFFFF"></path>
                <path d="M54.9023438,10.1953125 L31,10.1953125 L31,54.6015625 L54.9023438,54.6015625 C55.839293,54.6015625 56.6015625,53.839293 56.6015625,52.9023438 L56.6015625,11.8945312 C56.6015625,10.957582 55.839293,10.1953125 54.9023438,10.1953125 Z" id="Shape" fill="#FFFFFF"></path>
                <path d="M51.5039062,51.203125 L10.4960938,51.203125 C9.55687891,51.203125 8.796875,50.4431211 8.796875,49.5039062 L8.796875,18.6914062 C8.796875,17.7521914 9.55687891,16.9921875 10.4960938,16.9921875 L51.5039062,16.9921875 C52.4431211,16.9921875 53.203125,17.7521914 53.203125,18.6914062 L53.203125,49.5039062 C53.203125,50.4431211 52.4431211,51.203125 51.5039062,51.203125 Z" id="Shape" fill="#FBC2BA"></path>
                <path d="M44.59375,37.609375 L37.796875,37.609375 C36.8576602,37.609375 36.0976562,36.8493711 36.0976562,35.9101562 C36.0976562,34.9709414 36.8576602,34.2109375 37.796875,34.2109375 L44.59375,34.2109375 C45.5329648,34.2109375 46.2929688,34.9709414 46.2929688,35.9101562 C46.2929688,36.8493711 45.5329648,37.609375 44.59375,37.609375 Z" id="Shape" fill="#F45138"></path>
                <path d="M44.59375,30.8125 L37.796875,30.8125 C36.8576602,30.8125 36.0976562,30.0524961 36.0976562,29.1132812 C36.0976562,28.1740664 36.8576602,27.4140625 37.796875,27.4140625 L44.59375,27.4140625 C45.5329648,27.4140625 46.2929688,28.1740664 46.2929688,29.1132812 C46.2929688,30.0524961 45.5329648,30.8125 44.59375,30.8125 Z" id="Shape" fill="#F45138"></path>
                <path d="M37.6914062,3.3984375 L35.6862148,3.3984375 C35.0067539,1.42723047 33.1036289,0 30.8945312,0 C28.6854336,0 26.7823086,1.42723047 26.1028477,3.3984375 L24.0976562,3.3984375 C21.2768398,3.3984375 19,5.67527734 19,8.49609375 C19,11.3166836 21.2768398,13.59375 24.0976562,13.59375 L37.6914062,13.59375 C40.5122227,13.59375 42.7890625,11.3166836 42.7890625,8.49609375 C42.7890625,5.67527734 40.5122227,3.3984375 37.6914062,3.3984375 Z" id="Shape" fill="#F45138"></path>
                <path d="M36.1428571,5 L34.6256286,5 C34.1115143,3.83993333 32.6715143,3 31,3 C29.3284857,3 27.8884857,3.83993333 27.3743714,5 L25.8571429,5 C23.7227714,5 22,6.33993333 22,8 C22,9.65993333 23.7227714,11 25.8571429,11 L36.1428571,11 C38.2772286,11 40,9.65993333 40,8 C40,6.33993333 38.2772286,5 36.1428571,5 Z" id="Shape-Copy" fill="#FFFFFF"></path>
                <path d="M31,37.6433594 C29.4707031,35.5701992 26.9898437,34.2109375 24.203125,34.2109375 C19.5132812,34.2109375 15.7070312,38.0171875 15.7070312,42.7070312 C15.7070312,43.6584805 16.4545742,44.40625 17.40625,44.40625 L31,44.40625 C31.9516758,44.40625 32.6992188,43.6584805 32.6992188,42.7070312 C32.6992188,40.8039062 32.0875,39.0366055 31,37.6433594 Z" id="Shape" fill="#FFFFFF"></path>
                <path d="M24.203125,37.609375 C21.3921641,37.609375 19.1054688,35.3226797 19.1054688,32.5117188 C19.1054688,29.7007578 21.3921641,27.4140625 24.203125,27.4140625 C27.0140859,27.4140625 29.3007812,29.7007578 29.3007812,32.5117188 C29.3007812,35.3226797 27.0140859,37.609375 24.203125,37.609375 Z" id="Shape" fill="#F45138"></path>
            </g>
        </g>
    </g>
</svg>