<?xml version="1.0" encoding="UTF-8"?>
<svg width="62px" height="62px" viewBox="0 0 62 62" version="1.1" xmlns="http://www.w3.org/2000/svg" xmlns:xlink="http://www.w3.org/1999/xlink">
    <!-- Generator: Sketch 49.2 (51160) - http://www.bohemiancoding.com/sketch -->
    <title>招聘计划审批</title>
    <desc>Created with Sketch.</desc>
    <defs></defs>
    <g id="Page-1" stroke="none" stroke-width="1" fill="none" fill-rule="evenodd">
        <g id="首页" transform="translate(-410.000000, -462.000000)" fill-rule="nonzero">
            <g id="招聘计划审批" transform="translate(410.000000, 462.000000)">
                <path d="M39.8531993,12.2615378 L45.9491525,12.2615385 L45.9491132,3.25230757 C45.9525258,2.66461832 45.7337645,2.09882553 45.3395218,1.67569225 C44.9717003,1.25428208 44.4513838,1.00960585 43.9026278,1 L35.6949153,1 L35.6949153,7.75692264 C35.6965351,8.9330924 36.1237052,10.0660253 36.8923269,10.9326763 C37.6586384,11.7809713 38.7308848,12.2622034 39.8531993,12.2615378 Z" id="Shape" fill="#F45138"></path>
                <path d="M38.5009422,16.2641108 C37.5693344,16.2800959 36.6552744,16.0077079 35.8820629,15.4836901 C35.1303138,15.0017632 34.4928213,14.3592126 34.0146881,13.601499 C33.550493,12.8376747 33.1976976,12.010531 32.9671363,11.1454691 C32.7510266,10.3289442 32.6362854,9.48854297 32.6255434,8.64353215 L32.6255434,1 L6.14070316,1 C5.56669756,1.00978945 5.02244006,1.25914208 4.63769416,1.68860648 C4.22531141,2.11982695 3.99648438,2.6964335 4.00005398,3.29535502 L4.00005398,55.9507988 C3.99604605,56.5523393 4.2153661,57.1336458 4.6149213,57.5805009 C5.02211072,57.9882704 5.56705484,58.2260132 6.14070316,58.2461538 L31.5552188,58.2461538 C30.6286579,56.8294814 29.9149835,55.2825202 29.4373425,53.6554438 C28.9475227,51.9628932 28.702093,50.2080621 28.7086109,48.444988 L28.7086109,47.526846 L28.7086109,46.6775646 L14.7032998,46.6775646 C13.7440707,46.6869674 12.8257131,46.2866888 12.175512,45.5757942 C11.4854023,44.8662888 11.1078211,43.9065729 11.1279603,42.9131824 C11.1022138,41.8983934 11.4792798,40.9152004 12.175512,40.18171 C12.8228609,39.4694074 13.7453059,39.0757236 14.7032998,39.1028931 L31.3274902,39.1028931 C32.7319656,36.7425131 34.6960915,34.7706906 37.0434789,33.3645056 C39.4165971,31.9553422 42.1230473,31.2178511 44.877344,31.2298255 L46.8813559,31.2298255 L46.8813559,16.2641108 L38.5009422,16.2641108 Z M38.5009422,30.3575905 C37.8583173,31.0818597 36.9371144,31.4917433 35.9731543,31.4823145 L14.7032998,31.4823145 C13.7393398,31.4917433 12.8181369,31.0818597 12.175512,30.3575905 C11.4827747,29.6311485 11.1057866,28.656419 11.1279603,27.6490716 C11.10163,26.6477839 11.4796727,25.6786113 12.175512,24.9635063 C12.8384056,24.2815619 13.7568913,23.9145887 14.7032998,23.9535501 L36.0414729,23.9535501 C36.9977703,23.935344 37.9167066,24.3275303 38.5692608,25.0323669 C39.2651,25.747472 39.6431427,26.7166445 39.6168125,27.7179323 C39.6209561,28.7015453 39.2452753,29.6481993 38.5692608,30.3575905 L38.5009422,30.3575905 Z" id="Shape" fill="#FBC2BA"></path>
                <path d="M45.4832485,34.7846154 C40.0162327,34.7846154 35.0875346,38.0999747 32.9953983,43.1847465 C30.9032619,48.2695183 32.0596978,54.1223438 35.9254617,58.0140597 C39.7912256,61.9057756 45.6050214,63.0699749 50.6558853,60.9637935 C55.7067492,58.857612 59,53.8958261 59,48.3921088 C59,40.8768977 52.9483442,34.7846154 45.4832485,34.7846154 Z M54.1183112,43.4312849 L42.4206795,56.7374199 C42.3410182,56.8323634 42.2215364,56.8839136 42.0983039,56.8765084 C41.9947624,56.917817 41.8794696,56.917817 41.7759282,56.8765084 L36.5027831,51.7070518 C36.4055399,51.6009074 36.3629739,51.4552112 36.387649,51.3129677 C36.3522945,51.1997929 36.3522945,51.0784212 36.387649,50.9652464 L38.0225542,49.2961841 C38.2097347,49.1407315 38.4801251,49.1407315 38.6673056,49.2961841 L41.660794,52.3329502 C41.7513777,52.4261465 41.8767567,52.4766347 42.0061965,52.4720387 C42.1272134,52.4511802 42.2393865,52.3947171 42.3285722,52.3097687 L51.8156278,41.1595058 C51.8982992,41.0656142 52.0137882,41.007482 52.1380035,40.9972358 C52.2674433,40.9926398 52.3928223,41.0431281 52.483406,41.1363244 L54.1183112,42.8053866 C54.2126216,42.8855827 54.2638281,43.0058666 54.2564722,43.1299265 C54.2744668,43.2491611 54.2201153,43.3677132 54.1183112,43.4312849 Z" id="Shape" fill="#F45138"></path>
            </g>
        </g>
    </g>
</svg>