<?xml version="1.0" encoding="UTF-8"?>
<svg width="68px" height="60px" viewBox="0 0 68 60" version="1.1" xmlns="http://www.w3.org/2000/svg" xmlns:xlink="http://www.w3.org/1999/xlink">
    <!-- Generator: Sketch 49.2 (51160) - http://www.bohemiancoding.com/sketch -->
    <title>招聘需求汇总</title>
    <desc>Created with Sketch.</desc>
    <defs></defs>
    <g id="Page-1" stroke="none" stroke-width="1" fill="none" fill-rule="evenodd">
        <g id="首页" transform="translate(-696.000000, -464.000000)" fill-rule="nonzero">
            <g id="招聘需求汇总" transform="translate(696.333333, 464.000000)">
                <path d="M21.4960101,34.7324353 C20.2862587,34.4765033 19.3442955,33.4851045 19.1107215,32.2219632 C18.8771475,30.958822 19.3981387,29.6736522 20.4300026,28.9675891 C21.4618665,28.261526 22.8006111,28.2741531 23.8200418,28.9995641 C24.8394725,29.724975 25.3380552,31.0197614 25.0825791,32.2782899 C24.9215007,33.100628 24.4523621,33.8220676 23.779125,34.2827368 C23.1058879,34.7434059 22.2841502,34.9052612 21.4960101,34.7324353 Z M24.5856448,22.8219497 C24.7723268,21.6774536 25.5436068,20.730414 26.596909,20.3523579 C27.6502112,19.9743019 28.8175416,20.2255265 29.6409523,21.0074756 C30.464363,21.7894246 30.812526,22.9773829 30.5488558,24.1053101 C30.3877774,24.9276482 29.9186388,25.6490878 29.2454018,26.109757 C28.5721647,26.5704261 27.750427,26.7322815 26.9622869,26.5594556 C25.3169462,26.209189 24.2539109,24.5374604 24.5856448,22.8219497 Z M29.9006807,14.423819 C30.2889944,12.762691 31.8699439,11.7203815 33.4766966,12.0661755 C35.0834492,12.4119695 36.1388234,14.0216502 35.8638917,15.7071794 C35.6977896,16.5312719 35.2243026,17.252833 34.5476177,17.7130888 C33.8709328,18.1733445 33.0464955,18.334583 32.2557169,18.1613248 C31.4665885,17.9934677 30.7742838,17.5045859 30.3322185,16.8030164 C29.8901532,16.1014468 29.7348343,15.2451271 29.9006807,14.423819 Z" id="Shape" fill="#F45138"></path>
                <path d="M61.781922,24.9737396 L47.4756046,47.0976111 C46.5706869,48.5130163 41.2920005,56.3086325 37.4999646,58.4426279 C34.0325196,60.519124 29.7205756,60.519124 26.2531307,58.4426279 L3.8887369,42.633641 C0.980072972,39.8028306 0.398340164,35.5130642 1.56180578,31.1797468 L2.42363211,28.4360383 L8.73651013,32.7911312 C8.73651013,32.7911312 15.9973971,37.9301407 18.5182392,39.3237704 C21.3838118,41.0440321 28.3215139,44.5063309 28.3215139,44.5063309 C27.0322339,46.218108 26.5805707,48.4284352 27.0934114,50.516359 C27.3408458,51.2053491 27.7470522,51.8248896 28.2784226,52.3237225 C28.918446,53.2691638 29.8503727,53.9736494 30.9285386,54.3270652 C35.0868508,55.8077968 40.9688156,46.7709792 40.9688156,46.7709791 L60.0367236,18.3539985 L31.8119107,4.61368057 L15.7388492,29.3941588 C15.304401,30.3020768 14.2803522,30.7548767 13.3257354,30.4611565 C10.955713,29.3723833 12.6147287,26.9117558 13.1533702,26.1060637 L29.6357991,1.04250445 C30.7232156,0.173336068 32.1302763,-0.176222628 33.492472,0.084384042 L61.3079175,12.3221949 C69.1505373,15.8062691 65.6170493,19.225017 61.8250133,24.9737396 L61.781922,24.9737396 Z" id="Shape" fill="#FBC2BA"></path>
                <path d="M48.7411816,24.5118214 L40.5524542,20.7910531 C39.1761805,20.1435344 38.5750511,18.5439244 39.1950836,17.1790793 C39.5046688,16.5238743 40.0678863,16.0158605 40.7607052,15.7669121 C41.4535242,15.5179637 42.2191263,15.5484968 42.8889117,15.8517876 L51.144395,19.3549671 C51.8144482,19.6576919 52.3339745,20.2084287 52.5885646,20.885895 C52.8431547,21.5633612 52.8119296,22.3119979 52.5017656,22.966941 L52.5017656,23.0974943 C51.8391296,24.4553557 50.1873495,25.0453306 48.7856855,24.4247859 L48.7411816,24.5118214 Z M42.7999038,33.0848197 L34.7891922,29.0594271 C34.1292003,28.7295765 33.6311395,28.1557873 33.4055429,27.4653989 C33.1799462,26.7750104 33.2454746,26.0251301 33.5875855,25.3821765 C33.9047692,24.7008752 34.4930564,24.1760242 35.2158806,23.9294638 C35.9387047,23.6829033 36.7331983,23.7360781 37.4149255,24.0766438 L45.4256371,28.0585187 C46.0856289,28.3883692 46.5836897,28.9621584 46.8092864,29.6525468 C47.034883,30.3429353 46.9693547,31.0928156 46.6272438,31.7357692 C46.2899182,32.3811358 45.7031259,32.8681597 44.9970919,33.0887572 C44.2910579,33.3093547 43.5241839,33.2452784 42.8666597,32.9107486 L42.7999038,33.0848197 Z M36.8363741,41.7230945 L28.9369224,37.3713188 C28.2864202,37.0263403 27.8033181,36.4421101 27.5945115,35.7478998 C27.3857049,35.0536895 27.4684088,34.3067334 27.8243235,33.6723094 L27.8243235,33.563515 C28.1771199,32.9274277 28.7745899,32.455031 29.4845323,32.2508516 C30.1944747,32.0466721 30.9583583,32.1275433 31.6071596,32.4755711 L39.6401231,36.7620702 C40.2868003,37.1107759 40.7651209,37.6966334 40.9696518,38.3905059 C41.1741827,39.0843783 41.088133,39.8293025 40.73047,40.4610796 L40.73047,40.5916329 C39.9790131,41.9112958 38.2775461,42.3880466 36.925382,41.6578179 L36.8363741,41.7230945 Z" id="Shape" fill="#F45138"></path>
            </g>
        </g>
    </g>
</svg>